<svg id="Capa_1" data-name="Capa 1" xmlns="http://www.w3.org/2000/svg" viewBox="0 0 442.8 416"><defs><style>.cls-1{fill:#fdfdfd;}.cls-2{fill:#004282;}.cls-3{fill:#004182;}.cls-4{fill:#088ed4;}.cls-5{fill:#034282;}.cls-6{fill:#00387b;}.cls-7{fill:#003a7c;}.cls-8{fill:#00367a;}.cls-9{fill:#00377a;}.cls-10{fill:#1f9ad8;}.cls-11{fill:#35a4dc;}.cls-12{fill:#00397c;}.cls-13{fill:#fcfdfd;}</style></defs><path class="cls-1" d="M287,299.33q-96,0-192,0c-1.09,0-1.43-.17-1.43-1.37q.06-120.63,0-241.25c0-1.27.3-1.46,1.5-1.46q151.23,0,302.47,0c1.18,0,1.51.16,1.51,1.45q-.06,120.63,0,241.25c0,1.18-.3,1.38-1.41,1.38q-53,0-106,0c.06-.81.78-.65,1.25-.8a5.53,5.53,0,0,0,3.39-2.42,4.85,4.85,0,0,0-2.8-7.36c-1.63-.56-3.34-.89-5-1.48s-2.19-1.41-2-2.49a2.75,2.75,0,0,1,2.79-1.94,3.81,3.81,0,0,1,3.28,1.62c.28.41.54.92,1.11,1,.88,0,2,.54,2.55-.34s-.22-1.63-.71-2.35c0-.05-.07-.08-.09-.12-2.05-2.86-9.53-2.65-11.45-.3a4.67,4.67,0,0,0,1.73,7.46c1.74.7,3.6,1.07,5.37,1.7,1.6.58,2.19,1.32,2.06,2.59a2.78,2.78,0,0,1-2.81,2.3,4,4,0,0,1-4.23-2.09c-.45-.84-2.61-1.29-3.38-.78-.45.31-.28.71-.17,1.09a5.87,5.87,0,0,0,3.15,3.72C286.16,298.54,286.91,298.52,287,299.33Z"/><path class="cls-2" d="M287,299.33c-1.72-.81-3.46-1.57-4.4-3.43-1.27-2.53-1-3,1.69-3,1.14,0,1.85,0,2.31,1.43.62,1.89,4.44,2.29,5.8.8a1.86,1.86,0,0,0-.8-3.07c-1.57-.56-3.18-1-4.78-1.48-3.32-1-4.56-2.5-4.45-5.42.1-2.53,1.73-4.4,4.76-4.88,2.7-.43,5.48-.56,7.84,1.37a4.87,4.87,0,0,1,.68.6,4.57,4.57,0,0,1,1.18,3.34,11.48,11.48,0,0,1-3.83.28c-.33-.13-.36-.46-.5-.71a3.56,3.56,0,0,0-4.36-1.72,1.82,1.82,0,0,0-1.35,1.66,1.57,1.57,0,0,0,1.26,1.69c1.64.51,3.3,1,4.94,1.45,3.18,1,4.49,2.58,4.39,5.35s-2,4.84-5,5.47c-.28.06-.63-.05-.8.29Z"/><path class="cls-3" d="M311.94,231a73.51,73.51,0,0,1-.23,9.23,69.51,69.51,0,0,0-21-11.52,119.83,119.83,0,0,0-28.39-6.27,160.43,160.43,0,0,0-28.15-.54,141.13,141.13,0,0,0-21,3.15,3.64,3.64,0,0,1-1.52.11l3.44-5A316.7,316.7,0,0,0,251,150.24a8.67,8.67,0,0,0,.27-4.3,215.38,215.38,0,0,0-4-23.68,22.54,22.54,0,0,0-1.79-5.16c-.33-.62-.64-1.42-1.45-1.36s-.67,1-.79,1.59c-4.2,19.44-11.32,37.85-19.8,55.76a451.52,451.52,0,0,1-32,55.88,4.38,4.38,0,0,1-1.85,1.51,115.74,115.74,0,0,1-22.83,7.62,150,150,0,0,1-38.43,4.5c-.15,0-.3,0-.68-.06,1.79-1.6,3.48-3.07,5.12-4.59,14.26-13.14,26.54-28,37.63-43.84a360.12,360.12,0,0,0,43.36-84.3,401.31,401.31,0,0,0,13.35-44.92,1.75,1.75,0,0,1,.45-1c4.27,8.68,8.42,17.41,12.82,26a117.82,117.82,0,0,1,10.09,27.41c1.56,6.78,2.53,13.64,3.51,20.52.05.34,0,.72.44,1a51.74,51.74,0,0,0,3.57-8.79,150.69,150.69,0,0,0,4.79-21.93c1.16-7,2.33-14,3.29-21a215.06,215.06,0,0,0,2-25.49c0-1.68.45-3.33.49-5.12.46.85.92,1.7,1.36,2.55A388.21,388.21,0,0,1,296.77,127q5.19,17.55,8.71,35.52a344.44,344.44,0,0,1,5,34.89c.47,5.31.94,10.62,1.11,16a21.22,21.22,0,0,0-.11,3.38.76.76,0,0,0,0,.3.52.52,0,0,1,.17-.39,60.22,60.22,0,0,1,.24,8.91A27,27,0,0,0,311.94,231Z"/><path class="cls-4" d="M303.16,244.69c-6.64-2.73-13.55-3.77-20.4-5a181.25,181.25,0,0,0-34.94-3.16,125,125,0,0,0-40.82,8c-9.32,3.38-18.64,6.8-28.27,9.22a129.62,129.62,0,0,1-23.09,3.6,99.74,99.74,0,0,1-34.47-3.43,76.41,76.41,0,0,1-23.33-11.17c.64-.31,1.08,0,1.54.22a101.48,101.48,0,0,0,25.09,5.76c16.67,1.79,33-.25,49.13-4.41,9.12-2.35,18-5.38,27-8.23A192.2,192.2,0,0,1,228.54,229a112.64,112.64,0,0,1,59.77,7.19,91.66,91.66,0,0,1,13.82,7.3C302.54,243.72,303.07,243.88,303.16,244.69Z"/><path class="cls-4" d="M190.86,263.64a72,72,0,0,1,18.94-11.93,96.14,96.14,0,0,1,30.94-7.64,126.36,126.36,0,0,1,30.9,1.19c9.76,1.54,19.31,4,28.92,6.27A121.34,121.34,0,0,0,332.82,255a162.28,162.28,0,0,0,37.25-6.15,174.28,174.28,0,0,0,19.1-6.05c1.77-.73,3.46-1.67,5.18-2.51a.25.25,0,0,1,0,.4,93.3,93.3,0,0,1-28,16.26A114.36,114.36,0,0,1,333.69,264a121.13,121.13,0,0,1-27-1.42c-12.37-1.89-24.51-5-36.83-7.07a160.9,160.9,0,0,0-36.22-2.34,113.83,113.83,0,0,0-38.85,9.13c-1.21.52-2.38,1.11-3.58,1.66C190.91,264.09,190.81,263.94,190.86,263.64Z"/><path class="cls-2" d="M157.59,298.72c-1.53.67-3.13.18-4.69.24-.49,0-.34-.55-.34-.87,0-7.92,0-15.85,0-23.78,0-.79.35-.9,1-.9,2.44,0,4.87,0,7.31,0,.89,0,1.18.29,1.4,1.14,1.15,4.51,2.38,9,3.59,13.49.06.24,0,.52.48.66q1.88-6.17,3.74-12.34c.88-2.93.87-2.93,3.84-2.93,1.72,0,3.45,0,5.18,0,.7,0,1,.17,1,.93q0,11.9,0,23.78c0,.78-.32.94-1,.91a31.43,31.43,0,0,0-3.5,0c-1.16.1-1.54-.22-1.53-1.47.08-5.79,0-11.58,0-17.37v-1l-.27-.06c-.41,1.32-.83,2.63-1.22,4-1.44,4.89-2.89,9.79-4.27,14.7-.26.94-.61,1.29-1.61,1.27-3.39,0-3.37,0-4.25-3.2-1.4-5.12-2.82-10.23-4.22-15.35-.11-.4-.19-.78-.61-1a3.64,3.64,0,0,0-.17,1.93c0,3.89,0,7.78,0,11.68A45.53,45.53,0,0,0,157.59,298.72Z"/><path class="cls-2" d="M268,298.43l-6.79-10.86c-2,1.55-3.36,3.3-3,6.09a10.55,10.55,0,0,1-.21,5,17.77,17.77,0,0,0-4.25,0c-.57-.28-.28-.8-.28-1.19,0-7.51,0-15,0-22.55,0-1,.28-1.26,1.27-1.26,3.57,0,3.57,0,3.57,3.52v7.37l4.48-5.25c1.35-1.59,2.71-3.16,4-4.79a2,2,0,0,1,1.8-.84c1.52.06,3,0,4.76,0a29.88,29.88,0,0,1-3.35,3.95c-1.45,1.7-3,3.34-4.5,5a1.4,1.4,0,0,0-.22,2.05c2.82,4.44,5.53,8.95,8.29,13.43a.8.8,0,0,1-.87.44A32.56,32.56,0,0,1,268,298.43Z"/><path class="cls-2" d="M240.73,295.83c-1.53,2.63-3.59,3.6-6.19,3.14-3-.54-4.47-4-3.2-7.46,1.07-2.86,3.54-3.53,6.13-4.05.29-.06.61,0,.91-.08,2.1-.25,2.1-.25,1.9-2.39-.08-.91-.28-1.72-1.38-1.89s-2.06.22-2.24,1.3c-.27,1.55-1.09,1.62-2.29,1.28a4,4,0,0,0-.91-.06c-2.07-.12-2.26-.38-1.35-2.22,1.42-2.88,4-3.71,6.95-3.7a6.65,6.65,0,0,1,4.55,1.39,4.53,4.53,0,0,1,1.6,3.16c.45,4.56,0,9.14.3,13.71,0,.62-.19.8-.77.76-.4,0-.81,0-1.21,0C241,298.7,241,298.7,240.73,295.83Z"/><path class="cls-3" d="M300.14,278.6c0-1.32,0-2.64-.07-4,0-.7.15-.95.91-1,3.33-.12,3.31-.15,3.26,3.16,0,1.87,0,3.74,0,5.87,2.14-2.54,4.69-3.49,7.65-1.95,1.87,1,2.5,2.82,2.51,4.87a19.24,19.24,0,0,0,0,4.55l0,7.95c0,.24,0,.51-.29.6a9.15,9.15,0,0,0-3.65,0c-.64-.39-.28-1-.28-1.5,0-3.19.08-6.37.1-9.56,0-2.3-.68-3.35-2.24-3.55-1.83-.23-3.11.75-3.7,2.82-.06.18-.16.35-.24.53A13.37,13.37,0,0,0,304,292c0,1.93,0,3.86.05,5.78,0,.7-.16,1-.92,1-3.39.15-3.39.18-3.28-3.17.06-1.9.13-3.81.2-5.72a13,13,0,0,0,.17-3.88C300.22,283.53,300.38,281.06,300.14,278.6Z"/><path class="cls-2" d="M195.77,295.93c.43,2.58.43,2.58-2,2.58s-2.32,0-2.65-2.58c-1.07,1.42-2.14,2.6-3.91,2.91-3.13.56-5.56-1.19-5.84-4.35a6,6,0,0,1,4.51-6.67,19.57,19.57,0,0,1,3.88-.67c.89-.06,1.16-.38,1.06-1.2,0-.25,0-.5,0-.76-.12-1.09-.26-2.2-1.69-2.29a2,2,0,0,0-2.19,1.87c-.13.86-.47,1-1.18.87a14.81,14.81,0,0,0-2.57-.24c-1.29,0-1.17-.58-.87-1.47,1.11-3.3,4.85-5.09,8.87-4.22,3,.65,4.28,2,4.49,4.69A90.53,90.53,0,0,0,195.77,295.93Z"/><path class="cls-2" d="M220.41,280.72l.13,1.81a5,5,0,0,1,5.45-2.76,3.79,3.79,0,0,1,3.66,3.42c.55,4.08.17,8.2.24,12.3.05,3.23,0,3.13-3.18,3.27-1.56.07-1.94-.38-1.89-1.91.12-3.64.08-7.3,0-11,0-1.95-.9-2.59-2.54-2.18a1.74,1.74,0,0,0-1.28,1.33,10.39,10.39,0,0,0-.24,3.33c0,3-.08,6,0,9,0,1.19-.35,1.52-1.44,1.35s-2.37.34-3.49-.29c.32-3.72.07-7.45.14-11.18,0-1.81,0-3.63,0-5.45,0-1.09.39-1.59,1.52-1.47C218.48,280.43,219.53,280,220.41,280.72Z"/><path class="cls-2" d="M201.84,280.15c.7,1.16,0,2.44.38,3.69.55-.39.53-1.08.81-1.59a4,4,0,0,1,3.24-2.44c.71-.06,1.19,0,1.08.95a8.46,8.46,0,0,0,0,1.67c.07,1.36.26,2.55-1.86,2.62-1.63.05-2.65,2-2.7,4.4-.06,2.69-.07,5.39,0,8.08,0,.9-.17,1.2-1.15,1.2-3.9,0-3.9.06-3.9-3.78,0-4.42,0-8.84,0-13.26,0-.49-.18-1,.16-1.47.28.31.15.68.15,1q0,7.32,0,14.64a2.45,2.45,0,0,1-.14,1.46c.32-.32.15-.73.15-1.07q0-6.79,0-13.57c0-2.26,0-2.25,2.19-2.28C200.78,280.41,201.36,280.54,201.84,280.15Z"/><path class="cls-3" d="M213.75,298.42c-1.43.64-2.93.16-4.4.26-.64.05-.49-.52-.49-.89q0-8.54,0-17.07c1.27-.75,2.67-.27,4-.36.81-.06.67.84.67,1.43,0,5,0,10.1,0,15.16C213.6,297.44,213.44,298,213.75,298.42Z"/><path class="cls-3" d="M280,298.66h-4.27c-.25-.31-.14-.68-.14-1q0-7.75,0-15.5c0-1.54.22-1.75,1.74-1.79,2.83-.06,2.87-.06,2.8,2.75C280,288.29,280.23,293.48,280,298.66Z"/><path class="cls-5" d="M208.84,275.74c0-2.36,0-2.36,2.4-2.36,2.68,0,2.68,0,2.68,2.7,0,2.29,0,2.29-2.21,2.29h-.3C208.84,278.36,208.84,278.36,208.84,275.74Z"/><path class="cls-6" d="M280,298.66c0-2.67-.07-5.34-.07-8,0-2.93,0-5.86.05-8.79,0-.87-.31-1.43-1.33-1.32a10.11,10.11,0,0,1-1.35,0c-1.15,0-1.59.5-1.58,1.67,0,5.47,0,10.95,0,16.43-.61-.24-.31-.77-.31-1.15,0-5.38,0-10.75,0-16.13,0-1.09.31-1.32,1.35-1.31,3.6,0,3.6,0,3.6,3.6,0,4.57,0,9.13,0,13.69C280.26,297.78,280.64,298.38,280,298.66Z"/><path class="cls-6" d="M220.41,280.72a8.9,8.9,0,0,0-3.25-.2c-1,0-1,.8-1,1.55q0,7.4,0,14.77c0,.54.2,1.14-.31,1.58q0-7-.1-14.07c0-.3,0-.61,0-.91.11-1.09-.46-2.84.22-3.13,1.2-.52,2.77-.19,4.19-.18C220.52,280.14,220.44,280.48,220.41,280.72Z"/><path class="cls-7" d="M201.84,280.15c.11.91-.51.58-1,.58-3.27,0-2.65-.27-2.67,2.63,0,4.9,0,9.81-.32,14.72V280.22A17.49,17.49,0,0,1,201.84,280.15Z"/><path class="cls-8" d="M213.75,298.42c-.5-.44-.3-1-.3-1.57,0-5,0-9.91,0-14.87,0-1-.18-1.52-1.42-1.4-1,.1-2.09,0-3.13.14-.12-.46.08-.63.54-.63,1.22,0,2.44,0,3.65,0,.66,0,.74.33.73.85Q213.79,289.67,213.75,298.42Z"/><path class="cls-8" d="M277.85,278.35c-2.53,0-2.53,0-2.53-2.52s0-2.45,2.47-2.45,2.52,0,2.52,2.55S280.31,278.35,277.85,278.35Z"/><path class="cls-8" d="M157.3,293.23c0-4.05,0-8.1,0-12.16,0-.53-.22-1.13.32-1.56q0,6.87,0,13.72C157.49,293.37,157.4,293.37,157.3,293.23Z"/><path class="cls-8" d="M195.77,295.93c-.3.17-.33,0-.33-.25,0-3.58,0-7.16,0-10.75,0-.18.15-.35.24-.53C195.93,288.24,195.84,292.09,195.77,295.93Z"/><path class="cls-8" d="M300.14,278.6c.5.68.23,1.46.24,2.19,0,2.51,0,5,0,7.54,0,.52.21,1.12-.33,1.54C300.09,286.11,300.11,282.36,300.14,278.6Z"/><path class="cls-8" d="M268,298.43c1.83-.17,3.69.32,5.5-.31.12.19.39.59.17.57C271.79,298.6,269.87,299.13,268,298.43Z"/><path class="cls-9" d="M311.94,231a12,12,0,0,1,0-5.47Z"/><path class="cls-6" d="M157.3,293.23h.29a40.23,40.23,0,0,1,0,5.49C156.94,296.92,157.47,295.06,157.3,293.23Z"/><path class="cls-9" d="M311.71,216.62l-.13,1.27c0-1.53-.51-3.07.06-4.56C311.66,214.42,311.68,215.52,311.71,216.62Z"/><path class="cls-8" d="M314.38,290.17a8.19,8.19,0,0,1,0-4.55C314.39,287.14,314.39,288.65,314.38,290.17Z"/><path class="cls-8" d="M304,292a7.09,7.09,0,0,1,.1-4.55Z"/><path class="cls-8" d="M253.72,298.69a7.59,7.59,0,0,1,4.25,0A24.13,24.13,0,0,1,253.72,298.69Z"/><path class="cls-9" d="M310.47,298.71a4.9,4.9,0,0,1,3.65,0A16.5,16.5,0,0,1,310.47,298.71Z"/><path class="cls-10" d="M190.86,263.64l.38.35a2.91,2.91,0,0,1-1.57.86A2.27,2.27,0,0,1,190.86,263.64Z"/><path class="cls-11" d="M394.35,240.71v-.4c.23-.23.41-.54.9-.39A1.62,1.62,0,0,1,394.35,240.71Z"/><ellipse class="cls-6" cx="152.89" cy="280.87" rx="0.1" ry="9.65"/><path class="cls-6" d="M153,288.76v9.55h-.15V288.7Z"/><path class="cls-12" d="M179.82,274.16v6.5h-.15V274Z"/><path class="cls-1" d="M240.33,291.47c-.06,1.39-.13,2.65-1.12,3.62a1.67,1.67,0,0,1-3-.76,3.42,3.42,0,0,1,3.46-4.46C241.07,289.94,239.89,291.1,240.33,291.47Z"/><path class="cls-13" d="M190.88,291.24c-.11,1.35-.17,2.63-1.09,3.64a1.77,1.77,0,0,1-1.88.7,1.83,1.83,0,0,1-1.27-1.57,3.48,3.48,0,0,1,3.62-4.34C191.46,289.7,190.51,290.81,190.88,291.24Z"/><path class="cls-3" d="M278,273.87c1.4-.32,2.07.07,2,1.71-.13,2.39,0,2.4-1.86,2.4-2.44,0-2.46,0-2.44-1.78C275.71,273.53,275.36,273.88,278,273.87Z"/></svg>